{
	"asset":{
		"generator":"Khronos glTF Blender I/O v4.1.63",
		"version":"2.0"
	},
	"scene":0,
	"scenes":[
		{
			"name":"Scene",
			"nodes":[
				0
			]
		}
	],
	"nodes":[
		{
			"mesh":0,
			"name":"ReBel005.061"
		}
	],
	"materials":[
		{
			"doubleSided":true,
			"name":"mat_1",
			"pbrMetallicRoughness":{
				"baseColorFactor":[
					0.04666508734226227,
					0.04666508734226227,
					0.04373503103852272,
					1
				],
				"metallicFactor":0.5,
				"roughnessFactor":0.5
			}
		},
		{
			"doubleSided":true,
			"name":"mat_0",
			"pbrMetallicRoughness":{
				"baseColorFactor":[
					0.7454042434692383,
					0.1119324341416359,
					0.013702083379030228,
					1
				],
				"metallicFactor":0.5,
				"roughnessFactor":0.5
			}
		},
		{
			"doubleSided":true,
			"name":"mat_2",
			"pbrMetallicRoughness":{
				"baseColorFactor":[
					0.20507873594760895,
					0.1946178376674652,
					0.18782077729701996,
					1
				],
				"metallicFactor":0.5,
				"roughnessFactor":0.5
			}
		}
	],
	"meshes":[
		{
			"name":"ReBel005.061",
			"primitives":[
				{
					"attributes":{
						"POSITION":0,
						"NORMAL":1
					},
					"indices":2,
					"material":0
				},
				{
					"attributes":{
						"POSITION":3,
						"NORMAL":4
					},
					"indices":5,
					"material":1
				},
				{
					"attributes":{
						"POSITION":6,
						"NORMAL":7
					},
					"indices":8,
					"material":2
				}
			]
		}
	],
	"accessors":[
		{
			"bufferView":0,
			"componentType":5126,
			"count":3266,
			"max":[
				0.06230001151561737,
				0.28900033235549927,
				0.10644742846488953
			],
			"min":[
				-0.05670001357793808,
				-0.05232919007539749,
				-0.11090770363807678
			],
			"type":"VEC3"
		},
		{
			"bufferView":1,
			"componentType":5126,
			"count":3266,
			"type":"VEC3"
		},
		{
			"bufferView":2,
			"componentType":5123,
			"count":11877,
			"type":"SCALAR"
		},
		{
			"bufferView":3,
			"componentType":5126,
			"count":995,
			"max":[
				-0.004699993878602982,
				0.2889625132083893,
				0.05246170237660408
			],
			"min":[
				-0.026700010523200035,
				-0.052404649555683136,
				-0.052442602813243866
			],
			"type":"VEC3"
		},
		{
			"bufferView":4,
			"componentType":5126,
			"count":995,
			"type":"VEC3"
		},
		{
			"bufferView":5,
			"componentType":5123,
			"count":2901,
			"type":"SCALAR"
		},
		{
			"bufferView":6,
			"componentType":5126,
			"count":734,
			"max":[
				0.032300010323524475,
				0.28916996717453003,
				0.05249934643507004
			],
			"min":[
				-0.0047000073827803135,
				0.18413181602954865,
				-0.05250639095902443
			],
			"type":"VEC3"
		},
		{
			"bufferView":7,
			"componentType":5126,
			"count":734,
			"type":"VEC3"
		},
		{
			"bufferView":8,
			"componentType":5123,
			"count":2148,
			"type":"SCALAR"
		}
	],
	"bufferViews":[
		{
			"buffer":0,
			"byteLength":39192,
			"byteOffset":0,
			"target":34962
		},
		{
			"buffer":0,
			"byteLength":39192,
			"byteOffset":39192,
			"target":34962
		},
		{
			"buffer":0,
			"byteLength":23754,
			"byteOffset":78384,
			"target":34963
		},
		{
			"buffer":0,
			"byteLength":11940,
			"byteOffset":102140,
			"target":34962
		},
		{
			"buffer":0,
			"byteLength":11940,
			"byteOffset":114080,
			"target":34962
		},
		{
			"buffer":0,
			"byteLength":5802,
			"byteOffset":126020,
			"target":34963
		},
		{
			"buffer":0,
			"byteLength":8808,
			"byteOffset":131824,
			"target":34962
		},
		{
			"buffer":0,
			"byteLength":8808,
			"byteOffset":140632,
			"target":34962
		},
		{
			"buffer":0,
			"byteLength":4296,
			"byteOffset":149440,
			"target":34963
		}
	],
	"buffers":[
		{
			"byteLength":153736,
			"uri":"igus_REBEL_j1.bin"
		}
	]
}
