{
	"asset":{
		"generator":"Khronos glTF Blender I/O v4.1.63",
		"version":"2.0"
	},
	"scene":0,
	"scenes":[
		{
			"name":"Scene",
			"nodes":[
				0
			]
		}
	],
	"nodes":[
		{
			"mesh":0,
			"name":"ReBel006.338",
			"rotation":[
				0.70710688829422,
				0,
				0,
				0.7071066498756409
			],
			"translation":[
				0,
				0,
				0.11829999834299088
			]
		}
	],
	"materials":[
		{
			"doubleSided":true,
			"name":"mat_4",
			"pbrMetallicRoughness":{
				"baseColorFactor":[
					0.3419143855571747,
					0.3049873411655426,
					0.3324514925479889,
					1
				],
				"metallicFactor":0.5,
				"roughnessFactor":0.5
			}
		},
		{
			"doubleSided":true,
			"name":"mat_0.002",
			"pbrMetallicRoughness":{
				"baseColorFactor":[
					0.7454042434692383,
					0.1119324341416359,
					0.013702083379030228,
					1
				],
				"metallicFactor":0.5,
				"roughnessFactor":0.5
			}
		},
		{
			"doubleSided":true,
			"name":"mat_1.002",
			"pbrMetallicRoughness":{
				"baseColorFactor":[
					0.04666508734226227,
					0.04666508734226227,
					0.04373503103852272,
					1
				],
				"metallicFactor":0.5,
				"roughnessFactor":0.5
			}
		},
		{
			"doubleSided":true,
			"name":"mat_3.001",
			"pbrMetallicRoughness":{
				"baseColorFactor":[
					0.3813260495662689,
					0.40724024176597595,
					0.4620770215988159,
					1
				],
				"metallicFactor":0.5,
				"roughnessFactor":0.5
			}
		}
	],
	"meshes":[
		{
			"name":"ReBel006.649",
			"primitives":[
				{
					"attributes":{
						"POSITION":0,
						"NORMAL":1
					},
					"indices":2,
					"material":0
				},
				{
					"attributes":{
						"POSITION":3,
						"NORMAL":4
					},
					"indices":5,
					"material":1
				},
				{
					"attributes":{
						"POSITION":6,
						"NORMAL":7
					},
					"indices":8,
					"material":2
				},
				{
					"attributes":{
						"POSITION":9,
						"NORMAL":10
					},
					"indices":11,
					"material":3
				}
			]
		}
	],
	"accessors":[
		{
			"bufferView":0,
			"componentType":5126,
			"count":4805,
			"max":[
				0.03833950310945511,
				0.007300303317606449,
				0.03834030032157898
			],
			"min":[
				-0.038340505212545395,
				0.0030002789571881294,
				-0.03833970054984093
			],
			"type":"VEC3"
		},
		{
			"bufferView":1,
			"componentType":5126,
			"count":4805,
			"type":"VEC3"
		},
		{
			"bufferView":2,
			"componentType":5123,
			"count":11043,
			"type":"SCALAR"
		},
		{
			"bufferView":3,
			"componentType":5126,
			"count":2243,
			"max":[
				0.03999951481819153,
				0.007000301964581013,
				0.03970865532755852
			],
			"min":[
				-0.040000513195991516,
				2.8172507882118225e-07,
				-0.039708055555820465
			],
			"type":"VEC3"
		},
		{
			"bufferView":4,
			"componentType":5126,
			"count":2243,
			"type":"VEC3"
		},
		{
			"bufferView":5,
			"componentType":5123,
			"count":4482,
			"type":"SCALAR"
		},
		{
			"bufferView":6,
			"componentType":5126,
			"count":1982,
			"max":[
				0.02874952368438244,
				0.0075003039091825485,
				0.028609706088900566
			],
			"min":[
				-0.02875051088631153,
				0.004000278189778328,
				-0.028700897470116615
			],
			"type":"VEC3"
		},
		{
			"bufferView":7,
			"componentType":5126,
			"count":1982,
			"type":"VEC3"
		},
		{
			"bufferView":8,
			"componentType":5123,
			"count":4686,
			"type":"SCALAR"
		},
		{
			"bufferView":9,
			"componentType":5126,
			"count":622,
			"max":[
				0.009499496780335903,
				0.0075002992525696754,
				0.009431032463908195
			],
			"min":[
				-0.009500480256974697,
				0.005500282160937786,
				-0.009430436417460442
			],
			"type":"VEC3"
		},
		{
			"bufferView":10,
			"componentType":5126,
			"count":622,
			"type":"VEC3"
		},
		{
			"bufferView":11,
			"componentType":5123,
			"count":2742,
			"type":"SCALAR"
		}
	],
	"bufferViews":[
		{
			"buffer":0,
			"byteLength":57660,
			"byteOffset":0,
			"target":34962
		},
		{
			"buffer":0,
			"byteLength":57660,
			"byteOffset":57660,
			"target":34962
		},
		{
			"buffer":0,
			"byteLength":22086,
			"byteOffset":115320,
			"target":34963
		},
		{
			"buffer":0,
			"byteLength":26916,
			"byteOffset":137408,
			"target":34962
		},
		{
			"buffer":0,
			"byteLength":26916,
			"byteOffset":164324,
			"target":34962
		},
		{
			"buffer":0,
			"byteLength":8964,
			"byteOffset":191240,
			"target":34963
		},
		{
			"buffer":0,
			"byteLength":23784,
			"byteOffset":200204,
			"target":34962
		},
		{
			"buffer":0,
			"byteLength":23784,
			"byteOffset":223988,
			"target":34962
		},
		{
			"buffer":0,
			"byteLength":9372,
			"byteOffset":247772,
			"target":34963
		},
		{
			"buffer":0,
			"byteLength":7464,
			"byteOffset":257144,
			"target":34962
		},
		{
			"buffer":0,
			"byteLength":7464,
			"byteOffset":264608,
			"target":34962
		},
		{
			"buffer":0,
			"byteLength":5484,
			"byteOffset":272072,
			"target":34963
		}
	],
	"buffers":[
		{
			"byteLength":277556,
			"uri":"igus_REBEL_j5.bin"
		}
	]
}
