{
	"asset":{
		"generator":"Khronos glTF Blender I/O v4.1.63",
		"version":"2.0"
	},
	"scene":0,
	"scenes":[
		{
			"name":"Scene",
			"nodes":[
				0
			]
		}
	],
	"nodes":[
		{
			"mesh":0,
			"name":"ReBel002.001"
		}
	],
	"materials":[
		{
			"doubleSided":true,
			"name":"mat_1",
			"pbrMetallicRoughness":{
				"baseColorFactor":[
					0.04666508734226227,
					0.04666508734226227,
					0.04373503103852272,
					1
				],
				"metallicFactor":0.5,
				"roughnessFactor":0.5
			}
		},
		{
			"doubleSided":true,
			"name":"mat_2",
			"pbrMetallicRoughness":{
				"baseColorFactor":[
					0.20507873594760895,
					0.1946178376674652,
					0.18782077729701996,
					1
				],
				"metallicFactor":0.5,
				"roughnessFactor":0.5
			}
		},
		{
			"doubleSided":true,
			"name":"mat_0",
			"pbrMetallicRoughness":{
				"baseColorFactor":[
					0.7454042434692383,
					0.1119324341416359,
					0.013702083379030228,
					1
				],
				"metallicFactor":0.5,
				"roughnessFactor":0.5
			}
		}
	],
	"meshes":[
		{
			"name":"ReBel002.001",
			"primitives":[
				{
					"attributes":{
						"POSITION":0,
						"NORMAL":1
					},
					"indices":2,
					"material":0
				},
				{
					"attributes":{
						"POSITION":3,
						"NORMAL":4
					},
					"indices":5,
					"material":1
				},
				{
					"attributes":{
						"POSITION":6,
						"NORMAL":7
					},
					"indices":8,
					"material":2
				}
			]
		}
	],
	"accessors":[
		{
			"bufferView":0,
			"componentType":5126,
			"count":1081,
			"max":[
				0.057717215269804,
				0.09899987280368805,
				0.05250353366136551
			],
			"min":[
				-0.05389999970793724,
				-0.05211739242076874,
				-0.05249648913741112
			],
			"type":"VEC3"
		},
		{
			"bufferView":1,
			"componentType":5126,
			"count":1081,
			"type":"VEC3"
		},
		{
			"bufferView":2,
			"componentType":5123,
			"count":4518,
			"type":"SCALAR"
		},
		{
			"bufferView":3,
			"componentType":5126,
			"count":568,
			"max":[
				0.057717215269804,
				0.13299988210201263,
				0.05250353366136551
			],
			"min":[
				-0.04651721566915512,
				0.09899982810020447,
				-0.05249650776386261
			],
			"type":"VEC3"
		},
		{
			"bufferView":4,
			"componentType":5126,
			"count":568,
			"type":"VEC3"
		},
		{
			"bufferView":5,
			"componentType":5123,
			"count":1098,
			"type":"SCALAR"
		},
		{
			"bufferView":6,
			"componentType":5126,
			"count":1053,
			"max":[
				0.057717215269804,
				0.1424998939037323,
				0.052503544837236404
			],
			"min":[
				-0.04651721566915512,
				-0.05245285481214523,
				-0.05249648913741112
			],
			"type":"VEC3"
		},
		{
			"bufferView":7,
			"componentType":5126,
			"count":1053,
			"type":"VEC3"
		},
		{
			"bufferView":8,
			"componentType":5123,
			"count":2931,
			"type":"SCALAR"
		}
	],
	"bufferViews":[
		{
			"buffer":0,
			"byteLength":12972,
			"byteOffset":0,
			"target":34962
		},
		{
			"buffer":0,
			"byteLength":12972,
			"byteOffset":12972,
			"target":34962
		},
		{
			"buffer":0,
			"byteLength":9036,
			"byteOffset":25944,
			"target":34963
		},
		{
			"buffer":0,
			"byteLength":6816,
			"byteOffset":34980,
			"target":34962
		},
		{
			"buffer":0,
			"byteLength":6816,
			"byteOffset":41796,
			"target":34962
		},
		{
			"buffer":0,
			"byteLength":2196,
			"byteOffset":48612,
			"target":34963
		},
		{
			"buffer":0,
			"byteLength":12636,
			"byteOffset":50808,
			"target":34962
		},
		{
			"buffer":0,
			"byteLength":12636,
			"byteOffset":63444,
			"target":34962
		},
		{
			"buffer":0,
			"byteLength":5862,
			"byteOffset":76080,
			"target":34963
		}
	],
	"buffers":[
		{
			"byteLength":81944,
			"uri":"igus_REBEL_j2.bin"
		}
	]
}
