{
	"asset":{
		"generator":"Khronos glTF Blender I/O v4.1.63",
		"version":"2.0"
	},
	"scene":0,
	"scenes":[
		{
			"name":"Scene",
			"nodes":[
				0
			]
		}
	],
	"nodes":[
		{
			"mesh":0,
			"name":"ReBel006.120"
		}
	],
	"materials":[
		{
			"doubleSided":true,
			"name":"mat_1.001",
			"pbrMetallicRoughness":{
				"baseColorFactor":[
					0.04666508734226227,
					0.04666508734226227,
					0.04373503103852272,
					1
				],
				"metallicFactor":0.5,
				"roughnessFactor":0.5
			}
		},
		{
			"doubleSided":true,
			"name":"mat_0.001",
			"pbrMetallicRoughness":{
				"baseColorFactor":[
					0.7454042434692383,
					0.1119324341416359,
					0.013702083379030228,
					1
				],
				"metallicFactor":0.5,
				"roughnessFactor":0.5
			}
		},
		{
			"doubleSided":true,
			"name":"mat_2.001",
			"pbrMetallicRoughness":{
				"baseColorFactor":[
					0.20507873594760895,
					0.1946178376674652,
					0.18782077729701996,
					1
				],
				"metallicFactor":0.5,
				"roughnessFactor":0.5
			}
		},
		{
			"doubleSided":true,
			"name":"mat_3",
			"pbrMetallicRoughness":{
				"baseColorFactor":[
					0.3813260495662689,
					0.40724024176597595,
					0.4620770215988159,
					1
				],
				"metallicFactor":0.5,
				"roughnessFactor":0.5
			}
		}
	],
	"meshes":[
		{
			"name":"ReBel006.120",
			"primitives":[
				{
					"attributes":{
						"POSITION":0,
						"NORMAL":1
					},
					"indices":2,
					"material":0
				},
				{
					"attributes":{
						"POSITION":3,
						"NORMAL":4
					},
					"indices":5,
					"material":1
				},
				{
					"attributes":{
						"POSITION":6,
						"NORMAL":7
					},
					"indices":8,
					"material":2
				},
				{
					"attributes":{
						"POSITION":9,
						"NORMAL":10
					},
					"indices":11,
					"material":3
				}
			]
		}
	],
	"accessors":[
		{
			"bufferView":0,
			"componentType":5126,
			"count":2349,
			"max":[
				0.04111512005329132,
				0.03999990597367287,
				0.11280912905931473
			],
			"min":[
				-0.052799999713897705,
				-0.040000151842832565,
				-0.03999089449644089
			],
			"type":"VEC3"
		},
		{
			"bufferView":1,
			"componentType":5126,
			"count":2349,
			"type":"VEC3"
		},
		{
			"bufferView":2,
			"componentType":5123,
			"count":8136,
			"type":"SCALAR"
		},
		{
			"bufferView":3,
			"componentType":5126,
			"count":759,
			"max":[
				0.04090835526585579,
				0.039999913424253464,
				0.11930912733078003
			],
			"min":[
				-0.03850835561752319,
				-0.04000011831521988,
				-0.03999089449644089
			],
			"type":"VEC3"
		},
		{
			"bufferView":4,
			"componentType":5126,
			"count":759,
			"type":"VEC3"
		},
		{
			"bufferView":5,
			"componentType":5123,
			"count":2211,
			"type":"SCALAR"
		},
		{
			"bufferView":6,
			"componentType":5126,
			"count":162,
			"max":[
				0.04090835526585579,
				0.039999864995479584,
				0.09780912846326828
			],
			"min":[
				-0.03850835561752319,
				-0.040000103414058685,
				0.07480908930301666
			],
			"type":"VEC3"
		},
		{
			"bufferView":7,
			"componentType":5126,
			"count":162,
			"type":"VEC3"
		},
		{
			"bufferView":8,
			"componentType":5123,
			"count":468,
			"type":"SCALAR"
		},
		{
			"bufferView":9,
			"componentType":5126,
			"count":56,
			"max":[
				0.005685979500412941,
				0.004499893635511398,
				0.12480911612510681
			],
			"min":[
				-0.0032999999821186066,
				-0.004500130191445351,
				0.08480910211801529
			],
			"type":"VEC3"
		},
		{
			"bufferView":10,
			"componentType":5126,
			"count":56,
			"type":"VEC3"
		},
		{
			"bufferView":11,
			"componentType":5123,
			"count":162,
			"type":"SCALAR"
		}
	],
	"bufferViews":[
		{
			"buffer":0,
			"byteLength":28188,
			"byteOffset":0,
			"target":34962
		},
		{
			"buffer":0,
			"byteLength":28188,
			"byteOffset":28188,
			"target":34962
		},
		{
			"buffer":0,
			"byteLength":16272,
			"byteOffset":56376,
			"target":34963
		},
		{
			"buffer":0,
			"byteLength":9108,
			"byteOffset":72648,
			"target":34962
		},
		{
			"buffer":0,
			"byteLength":9108,
			"byteOffset":81756,
			"target":34962
		},
		{
			"buffer":0,
			"byteLength":4422,
			"byteOffset":90864,
			"target":34963
		},
		{
			"buffer":0,
			"byteLength":1944,
			"byteOffset":95288,
			"target":34962
		},
		{
			"buffer":0,
			"byteLength":1944,
			"byteOffset":97232,
			"target":34962
		},
		{
			"buffer":0,
			"byteLength":936,
			"byteOffset":99176,
			"target":34963
		},
		{
			"buffer":0,
			"byteLength":672,
			"byteOffset":100112,
			"target":34962
		},
		{
			"buffer":0,
			"byteLength":672,
			"byteOffset":100784,
			"target":34962
		},
		{
			"buffer":0,
			"byteLength":324,
			"byteOffset":101456,
			"target":34963
		}
	],
	"buffers":[
		{
			"byteLength":101780,
			"uri":"igus_REBEL_j4.bin"
		}
	]
}
