{
	"asset":{
		"generator":"Khronos glTF Blender I/O v4.1.63",
		"version":"2.0"
	},
	"scene":0,
	"scenes":[
		{
			"name":"Scene",
			"nodes":[
				0
			]
		}
	],
	"nodes":[
		{
			"mesh":0,
			"name":"ReBel.075"
		}
	],
	"materials":[
		{
			"doubleSided":true,
			"name":"mat_2",
			"pbrMetallicRoughness":{
				"baseColorFactor":[
					0.20507873594760895,
					0.1946178376674652,
					0.18782077729701996,
					1
				],
				"metallicFactor":0.5,
				"roughnessFactor":0.5
			}
		},
		{
			"doubleSided":true,
			"name":"mat_0",
			"pbrMetallicRoughness":{
				"baseColorFactor":[
					0.7454042434692383,
					0.1119324341416359,
					0.013702083379030228,
					1
				],
				"metallicFactor":0.5,
				"roughnessFactor":0.5
			}
		},
		{
			"doubleSided":true,
			"name":"mat_1",
			"pbrMetallicRoughness":{
				"baseColorFactor":[
					0.04666508734226227,
					0.04666508734226227,
					0.04373503103852272,
					1
				],
				"metallicFactor":0.5,
				"roughnessFactor":0.5
			}
		},
		{
			"doubleSided":true,
			"name":"mat_3",
			"pbrMetallicRoughness":{
				"baseColorFactor":[
					0.3813260495662689,
					0.40724024176597595,
					0.4620770215988159,
					1
				],
				"metallicFactor":0.5,
				"roughnessFactor":0.5
			}
		}
	],
	"meshes":[
		{
			"name":"ReBel.075",
			"primitives":[
				{
					"attributes":{
						"POSITION":0,
						"NORMAL":1
					},
					"indices":2,
					"material":0
				},
				{
					"attributes":{
						"POSITION":3,
						"NORMAL":4
					},
					"indices":5,
					"material":1
				},
				{
					"attributes":{
						"POSITION":6,
						"NORMAL":7
					},
					"indices":8,
					"material":2
				},
				{
					"attributes":{
						"POSITION":9,
						"NORMAL":10
					},
					"indices":11,
					"material":3
				}
			]
		}
	],
	"accessors":[
		{
			"bufferView":0,
			"componentType":5126,
			"count":608,
			"max":[
				0.05270000174641609,
				0.0722000002861023,
				-0.019214864820241928
			],
			"min":[
				-0.061500005424022675,
				0.007499999832361937,
				-0.061500005424022675
			],
			"type":"VEC3"
		},
		{
			"bufferView":1,
			"componentType":5126,
			"count":608,
			"type":"VEC3"
		},
		{
			"bufferView":2,
			"componentType":5123,
			"count":1518,
			"type":"SCALAR"
		},
		{
			"bufferView":3,
			"componentType":5126,
			"count":482,
			"max":[
				0.05211721733212471,
				0.11029999703168869,
				0.05249999836087227
			],
			"min":[
				-0.05211721733212471,
				0.10000000149011612,
				-0.05249999836087227
			],
			"type":"VEC3"
		},
		{
			"bufferView":4,
			"componentType":5126,
			"count":482,
			"type":"VEC3"
		},
		{
			"bufferView":5,
			"componentType":5123,
			"count":1404,
			"type":"SCALAR"
		},
		{
			"bufferView":6,
			"componentType":5126,
			"count":2618,
			"max":[
				0.09119076281785965,
				0.10000000149011612,
				0.09119076281785965
			],
			"min":[
				-0.09119076281785965,
				0,
				-0.09119076281785965
			],
			"type":"VEC3"
		},
		{
			"bufferView":7,
			"componentType":5126,
			"count":2618,
			"type":"VEC3"
		},
		{
			"bufferView":8,
			"componentType":5123,
			"count":9852,
			"type":"SCALAR"
		},
		{
			"bufferView":9,
			"componentType":5126,
			"count":534,
			"max":[
				0.03897605091333389,
				0.06996999680995941,
				-0.05959999933838844
			],
			"min":[
				-0.04344310238957405,
				0.010521036572754383,
				-0.06549999862909317
			],
			"type":"VEC3"
		},
		{
			"bufferView":10,
			"componentType":5126,
			"count":534,
			"type":"VEC3"
		},
		{
			"bufferView":11,
			"componentType":5123,
			"count":1344,
			"type":"SCALAR"
		}
	],
	"bufferViews":[
		{
			"buffer":0,
			"byteLength":7296,
			"byteOffset":0,
			"target":34962
		},
		{
			"buffer":0,
			"byteLength":7296,
			"byteOffset":7296,
			"target":34962
		},
		{
			"buffer":0,
			"byteLength":3036,
			"byteOffset":14592,
			"target":34963
		},
		{
			"buffer":0,
			"byteLength":5784,
			"byteOffset":17628,
			"target":34962
		},
		{
			"buffer":0,
			"byteLength":5784,
			"byteOffset":23412,
			"target":34962
		},
		{
			"buffer":0,
			"byteLength":2808,
			"byteOffset":29196,
			"target":34963
		},
		{
			"buffer":0,
			"byteLength":31416,
			"byteOffset":32004,
			"target":34962
		},
		{
			"buffer":0,
			"byteLength":31416,
			"byteOffset":63420,
			"target":34962
		},
		{
			"buffer":0,
			"byteLength":19704,
			"byteOffset":94836,
			"target":34963
		},
		{
			"buffer":0,
			"byteLength":6408,
			"byteOffset":114540,
			"target":34962
		},
		{
			"buffer":0,
			"byteLength":6408,
			"byteOffset":120948,
			"target":34962
		},
		{
			"buffer":0,
			"byteLength":2688,
			"byteOffset":127356,
			"target":34963
		}
	],
	"buffers":[
		{
			"byteLength":130044,
			"uri":"igus_REBEL_base.bin"
		}
	]
}
