{
	"asset":{
		"generator":"Khronos glTF Blender I/O v4.1.63",
		"version":"2.0"
	},
	"scene":0,
	"scenes":[
		{
			"name":"Scene",
			"nodes":[
				0
			]
		}
	],
	"nodes":[
		{
			"mesh":0,
			"name":"ReBel001.006",
			"translation":[
				0,
				-0.15530000627040863,
				0
			]
		}
	],
	"materials":[
		{
			"doubleSided":true,
			"name":"mat_0",
			"pbrMetallicRoughness":{
				"baseColorFactor":[
					0.7454042434692383,
					0.1119324341416359,
					0.013702083379030228,
					1
				],
				"metallicFactor":0.5,
				"roughnessFactor":0.5
			}
		},
		{
			"doubleSided":true,
			"name":"mat_1",
			"pbrMetallicRoughness":{
				"baseColorFactor":[
					0.04666508734226227,
					0.04666508734226227,
					0.04373503103852272,
					1
				],
				"metallicFactor":0.5,
				"roughnessFactor":0.5
			}
		},
		{
			"doubleSided":true,
			"name":"mat_2",
			"pbrMetallicRoughness":{
				"baseColorFactor":[
					0.20507873594760895,
					0.1946178376674652,
					0.18782077729701996,
					1
				],
				"metallicFactor":0.5,
				"roughnessFactor":0.5
			}
		}
	],
	"meshes":[
		{
			"name":"ReBel001.006",
			"primitives":[
				{
					"attributes":{
						"POSITION":0,
						"NORMAL":1
					},
					"indices":2,
					"material":0
				},
				{
					"attributes":{
						"POSITION":3,
						"NORMAL":4
					},
					"indices":5,
					"material":1
				},
				{
					"attributes":{
						"POSITION":6,
						"NORMAL":7
					},
					"indices":8,
					"material":2
				}
			]
		}
	],
	"accessors":[
		{
			"bufferView":0,
			"componentType":5126,
			"count":827,
			"max":[
				0.05211721360683441,
				0.19523240625858307,
				0.05250006169080734
			],
			"min":[
				-0.05211721360683441,
				8.381903171539307e-08,
				-0.05249995365738869
			],
			"type":"VEC3"
		},
		{
			"bufferView":1,
			"componentType":5126,
			"count":827,
			"type":"VEC3"
		},
		{
			"bufferView":2,
			"componentType":5123,
			"count":2184,
			"type":"SCALAR"
		},
		{
			"bufferView":3,
			"componentType":5126,
			"count":2962,
			"max":[
				0.053999997675418854,
				0.19530010223388672,
				0.03999127075076103
			],
			"min":[
				-0.039993032813072205,
				-0.0429370179772377,
				-0.05177592113614082
			],
			"type":"VEC3"
		},
		{
			"bufferView":4,
			"componentType":5126,
			"count":2962,
			"type":"VEC3"
		},
		{
			"bufferView":5,
			"componentType":5123,
			"count":10689,
			"type":"SCALAR"
		},
		{
			"bufferView":6,
			"componentType":5126,
			"count":1343,
			"max":[
				0.05211721360683441,
				0.19523240625858307,
				0.052500054240226746
			],
			"min":[
				-0.05211721360683441,
				0.010300088673830032,
				-0.05249996855854988
			],
			"type":"VEC3"
		},
		{
			"bufferView":7,
			"componentType":5126,
			"count":1343,
			"type":"VEC3"
		},
		{
			"bufferView":8,
			"componentType":5123,
			"count":4755,
			"type":"SCALAR"
		}
	],
	"bufferViews":[
		{
			"buffer":0,
			"byteLength":9924,
			"byteOffset":0,
			"target":34962
		},
		{
			"buffer":0,
			"byteLength":9924,
			"byteOffset":9924,
			"target":34962
		},
		{
			"buffer":0,
			"byteLength":4368,
			"byteOffset":19848,
			"target":34963
		},
		{
			"buffer":0,
			"byteLength":35544,
			"byteOffset":24216,
			"target":34962
		},
		{
			"buffer":0,
			"byteLength":35544,
			"byteOffset":59760,
			"target":34962
		},
		{
			"buffer":0,
			"byteLength":21378,
			"byteOffset":95304,
			"target":34963
		},
		{
			"buffer":0,
			"byteLength":16116,
			"byteOffset":116684,
			"target":34962
		},
		{
			"buffer":0,
			"byteLength":16116,
			"byteOffset":132800,
			"target":34962
		},
		{
			"buffer":0,
			"byteLength":9510,
			"byteOffset":148916,
			"target":34963
		}
	],
	"buffers":[
		{
			"byteLength":158428,
			"uri":"igus_REBEL_j3.bin"
		}
	]
}
