{
	"asset":{
		"generator":"Khronos glTF Blender I/O v4.1.63",
		"version":"2.0"
	},
	"scene":0,
	"scenes":[
		{
			"name":"Scene",
			"nodes":[
				0
			]
		}
	],
	"nodes":[
		{
			"mesh":0,
			"name":"ReBel.011"
		}
	],
	"materials":[
		{
			"doubleSided":true,
			"name":"mat_0",
			"pbrMetallicRoughness":{
				"baseColorFactor":[
					0.7454042434692383,
					0.1119324341416359,
					0.013702083379030228,
					1
				],
				"metallicFactor":0.5,
				"roughnessFactor":0.5
			}
		},
		{
			"doubleSided":true,
			"name":"mat_2",
			"pbrMetallicRoughness":{
				"baseColorFactor":[
					0.20507873594760895,
					0.1946178376674652,
					0.18782077729701996,
					1
				],
				"metallicFactor":0.5,
				"roughnessFactor":0.5
			}
		},
		{
			"doubleSided":true,
			"name":"mat_1",
			"pbrMetallicRoughness":{
				"baseColorFactor":[
					0.04666508734226227,
					0.04666508734226227,
					0.04373503103852272,
					1
				],
				"metallicFactor":0.5,
				"roughnessFactor":0.5
			}
		}
	],
	"meshes":[
		{
			"name":"ReBel.011",
			"primitives":[
				{
					"attributes":{
						"POSITION":0,
						"NORMAL":1
					},
					"indices":2,
					"material":0
				},
				{
					"attributes":{
						"POSITION":3,
						"NORMAL":4
					},
					"indices":5,
					"material":1
				},
				{
					"attributes":{
						"POSITION":6,
						"NORMAL":7
					},
					"indices":8,
					"material":2
				}
			]
		}
	],
	"accessors":[
		{
			"bufferView":0,
			"componentType":5126,
			"count":536,
			"max":[
				0.05211722478270531,
				0.3043172061443329,
				0.052500005811452866
			],
			"min":[
				-0.05211722478270531,
				0.10970000177621841,
				-0.052500005811452866
			],
			"type":"VEC3"
		},
		{
			"bufferView":1,
			"componentType":5126,
			"count":536,
			"type":"VEC3"
		},
		{
			"bufferView":2,
			"componentType":5123,
			"count":1560,
			"type":"SCALAR"
		},
		{
			"bufferView":3,
			"componentType":5126,
			"count":759,
			"max":[
				0.05211722478270531,
				0.3044494092464447,
				0.052500005811452866
			],
			"min":[
				-0.05211722478270531,
				0.11919999867677689,
				-0.05250001698732376
			],
			"type":"VEC3"
		},
		{
			"bufferView":4,
			"componentType":5126,
			"count":759,
			"type":"VEC3"
		},
		{
			"bufferView":5,
			"componentType":5123,
			"count":2133,
			"type":"SCALAR"
		},
		{
			"bufferView":6,
			"componentType":5126,
			"count":1087,
			"max":[
				0.05950001999735832,
				0.3043172061443329,
				0.052500005811452866
			],
			"min":[
				-0.05211722478270531,
				0.15320000052452087,
				-0.05250001698732376
			],
			"type":"VEC3"
		},
		{
			"bufferView":7,
			"componentType":5126,
			"count":1087,
			"type":"VEC3"
		},
		{
			"bufferView":8,
			"componentType":5123,
			"count":4542,
			"type":"SCALAR"
		}
	],
	"bufferViews":[
		{
			"buffer":0,
			"byteLength":6432,
			"byteOffset":0,
			"target":34962
		},
		{
			"buffer":0,
			"byteLength":6432,
			"byteOffset":6432,
			"target":34962
		},
		{
			"buffer":0,
			"byteLength":3120,
			"byteOffset":12864,
			"target":34963
		},
		{
			"buffer":0,
			"byteLength":9108,
			"byteOffset":15984,
			"target":34962
		},
		{
			"buffer":0,
			"byteLength":9108,
			"byteOffset":25092,
			"target":34962
		},
		{
			"buffer":0,
			"byteLength":4266,
			"byteOffset":34200,
			"target":34963
		},
		{
			"buffer":0,
			"byteLength":13044,
			"byteOffset":38468,
			"target":34962
		},
		{
			"buffer":0,
			"byteLength":13044,
			"byteOffset":51512,
			"target":34962
		},
		{
			"buffer":0,
			"byteLength":9084,
			"byteOffset":64556,
			"target":34963
		}
	],
	"buffers":[
		{
			"byteLength":73640,
			"uri":"igus_REBEL_j0.bin"
		}
	]
}
